# xmcd
#
# Track frame offsets:
#	182
#	10652
#	22792
#	32890
#	45237
#	56280
#	66130
#	77132
#	88735
#	99385
#	112560
#	122797
#	133602
#	145290
#	154940
#	166100
#	178440
#	190892
#	200740
#	213192
#	222617
#	234540
#	246605
#	257852
#
# Disc length: 3572 seconds
#
# Revision: 0
# Processed by: cddbd v1.4PL0 Copyright (c) Steve Scherf et al.
# Submitted via: EasyCDDAExtractor 5.0.4.1
#
DISCID=510df218
DTITLE=Various Artist - Country Music Originals Vol. 3
DYEAR=1900
DGENRE=Country
TTITLE0=Earls, Jack - Slow Down
TTITLE1=Earls, Jack - A Fool for Lovin' You
TTITLE2=Cash, Johnny - Get Rhythm
TTITLE3=Cash, Johnny - I Walk the Line
TTITLE4=Rhythm Rockers - Fiddle Bop
TTITLE5=Rhythm Rockers - Jukebox Help Me Find My Baby
TTITLE6=Perkins, Carl - Dixie Fried
TTITLE7=Perkins, Carl - I'm Sorry I'm Not Sorry
TTITLE8=Miller Sisters - Ten Cats Down
TTITLE9=Miller Sisters - Finders Keepers
TTITLE10=Cash, Johnny - There You Go
TTITLE11=Cash, Johnny - Train of Love
TTITLE12=Chaffin, Ernie - Feelin' Low
TTITLE13=Chaffin, Ernie - Lonesome for My Baby
TTITLE14=Cash, Johnny - Don't Make Me Go
TTITLE15=Cash, Johnny - Next in Line
TTITLE16=Self, Mack - Easy to Love
TTITLE17=Self, Mack - Everyday
TTITLE18=Chaffin, Ernie - I'm Lonesome
TTITLE19=Chaffin, Ernie - Laughin' and Jokin'
TTITLE20=Cash, Johnny - Home of the Blues
TTITLE21=Cash, Johnny - Give My Love to Rose
TTITLE22=Blake, Buddy - You Pass Me By
TTITLE23=Blake, Buddy - Please Convince Me
EXTD=
EXTT0=
EXTT1=
EXTT2=
EXTT3=
EXTT4=
EXTT5=
EXTT6=
EXTT7=
EXTT8=
EXTT9=
EXTT10=
EXTT11=
EXTT12=
EXTT13=
EXTT14=
EXTT15=
EXTT16=
EXTT17=
EXTT18=
EXTT19=
EXTT20=
EXTT21=
EXTT22=
EXTT23=
PLAYORDER=
